<?xml version="1.0" encoding="UTF-8"?>
<svg width="18px" height="18px" viewBox="0 0 18 18" version="1.1" xmlns="http://www.w3.org/2000/svg" xmlns:xlink="http://www.w3.org/1999/xlink">
    <!-- Generator: Sketch Internal 51 (54983) - http://www.bohemiancoding.com/sketch -->
    <title>Oval 2 Copy</title>
    <desc>Created with Sketch Internal.</desc>
    <defs></defs>
    <g id="Pricing-2.1-Iterations" stroke="none" stroke-width="1" fill="none" fill-rule="evenodd">
        <g id="Pricing-Block-2.1---E-—-Buy--Copy-5" transform="translate(-370.000000, -2053.000000)" fill="#F06236">
            <path d="M379,2071 C374.029437,2071 370,2066.97056 370,2062 C370,2057.02944 374.029437,2053 379,2053 C383.970563,2053 388,2057.02944 388,2062 C388,2066.97056 383.970563,2071 379,2071 Z M375.000004,2063.29472 C375.199964,2063.85931 377.000227,2065.67734 377.500283,2066.47155 C378.000339,2067.26575 378.500395,2066.47155 378.500395,2066.47155 C378.500395,2066.47155 382.557999,2059.99686 383.000898,2059.05895 C383.500954,2058.00001 382.250814,2057.73528 382.000786,2058.00001 C381.750758,2058.26475 378.000339,2064.6184 378.000339,2064.6184 C378.000339,2064.6184 376.500172,2062.23578 376.000116,2062.23578 C375.50006,2062.23578 374.800044,2062.73013 375.000004,2063.29472 Z" id="Oval-2-Copy"></path>
        </g>
    </g>
</svg>